<svg xmlns="http://www.w3.org/2000/svg" width="56" height="56" fill="none" viewBox="0 0 56 56">
    <path fill="#fff" d="M53.667 6.995a2.333 2.333 0 0 0-2.334 2.334v8.605l-6.843-6.428a23.52 23.52 0 0 0-8.718-5.502C23.637 1.714 10.283 8.087 5.99 20.216a2.335 2.335 0 0 0 1.42 2.98 2.332 2.332 0 0 0 2.978-1.421c3.432-9.705 14.121-14.812 23.823-11.37a18.933 18.933 0 0 1 7.03 4.451l6.536 6.14h-8.11a2.333 2.333 0 1 0 0 4.666h14A2.333 2.333 0 0 0 56 23.329v-14a2.333 2.333 0 0 0-2.333-2.334zM48.59 32.797a2.33 2.33 0 0 0-2.978 1.419 18.812 18.812 0 0 1-4.403 6.977c-7.28 7.273-19.124 7.273-26.45-.059l-6.534-6.139h8.108a2.333 2.333 0 1 0 0-4.666h-14A2.333 2.333 0 0 0 0 32.662v14a2.333 2.333 0 1 0 4.667 0v-8.608l6.843 6.43a23.184 23.184 0 0 0 16.497 6.84h.007c6.23 0 12.087-2.424 16.494-6.83a23.506 23.506 0 0 0 5.5-8.717 2.332 2.332 0 0 0-1.419-2.98z"/>
</svg>
